<?xml version="1.0" standalone="no"?>
<!DOCTYPE svg PUBLIC "-//W3C//DTD SVG 20010904//EN"
 "http://www.w3.org/TR/2001/REC-SVG-20010904/DTD/svg10.dtd">
<svg version="1.0" xmlns="http://www.w3.org/2000/svg"
 width="341.000000pt" height="192.000000pt" viewBox="0 0 341.000000 192.000000"
 preserveAspectRatio="xMidYMid meet">
<metadata>
Created by potrace 1.16, written by Peter Selinger 2001-2019
</metadata>
<g transform="translate(0.000000,192.000000) scale(0.100000,-0.100000)"
fill="#000000" stroke="none">
<path d="M2420 1583 c0 -23 9 -33 50 -56 50 -27 90 -76 90 -110 0 -9 -22 -33
-49 -52 -52 -37 -61 -51 -61 -91 0 -110 179 -128 232 -23 55 106 -25 262 -165
324 -92 40 -97 40 -97 8z"/>
<path d="M2730 1581 c0 -27 5 -33 40 -47 45 -18 87 -62 97 -101 5 -21 0 -31
-23 -50 -77 -62 -84 -71 -84 -103 0 -42 14 -67 50 -85 90 -46 200 23 200 126
0 98 -71 199 -173 248 -100 47 -107 48 -107 12z"/>
</g>
</svg>
