<?xml version="1.0" standalone="no"?>
<!DOCTYPE svg PUBLIC "-//W3C//DTD SVG 20010904//EN"
 "http://www.w3.org/TR/2001/REC-SVG-20010904/DTD/svg10.dtd">
<svg version="1.0" xmlns="http://www.w3.org/2000/svg"
 width="820.000000pt" height="564.000000pt" viewBox="0 0 820.000000 564.000000"
 preserveAspectRatio="xMidYMid meet">

<g transform="translate(0.000000,564.000000) scale(0.100000,-0.100000)"
fill="#000000" stroke="none">
<path d="M1111 5226 c-9 -10 -11 -228 -9 -837 l3 -824 23 -66 c50 -141 133
-208 265 -217 57 -3 84 0 129 17 92 35 121 76 214 295 36 84 67 111 128 108
72 -3 149 -37 195 -87 178 -194 250 -523 190 -876 -35 -205 -98 -356 -196
-468 -34 -39 -54 -52 -108 -69 -143 -47 -173 -30 -246 143 -83 199 -149 255
-303 257 -124 1 -202 -50 -260 -172 l-31 -65 -3 -864 c-2 -602 1 -868 8 -875
18 -18 1595 -9 1685 10 226 46 328 195 269 395 -22 74 -94 143 -189 183 -201
83 -215 94 -215 168 0 58 24 132 56 175 13 17 57 54 98 81 170 114 414 171
649 152 281 -23 487 -93 619 -210 64 -57 98 -131 98 -212 0 -43 -4 -54 -30
-78 -17 -16 -57 -38 -88 -50 -139 -51 -168 -66 -222 -120 -64 -64 -80 -104
-80 -207 0 -146 94 -246 272 -288 89 -21 1659 -23 1677 -2 7 10 11 263 13 863
l3 849 35 64 c50 92 90 116 194 116 131 0 161 -27 242 -219 70 -167 116 -203
239 -193 77 6 157 41 209 92 91 90 177 263 211 425 60 290 55 494 -17 720 -43
137 -150 305 -225 356 -47 32 -142 59 -203 59 -99 -1 -138 -41 -209 -215 -23
-57 -52 -117 -63 -132 -33 -48 -93 -72 -175 -73 -64 0 -76 3 -115 30 -31 22
-53 50 -78 99 l-35 69 -7 845 c-6 663 -10 848 -20 854 -7 5 -375 6 -818 2
-852 -6 -879 -8 -971 -55 -62 -31 -126 -95 -145 -145 -21 -56 -23 -143 -4
-209 24 -84 91 -142 234 -201 127 -52 161 -76 172 -120 9 -34 -7 -116 -33
-169 -49 -106 -259 -216 -492 -259 -260 -49 -638 17 -828 145 -103 69 -139
117 -163 216 -23 99 6 136 146 189 167 62 228 114 259 217 55 186 -50 340
-263 386 -37 8 -300 11 -866 11 -681 0 -815 -2 -825 -14z"/>
</g>
</svg>
